#!OML:ASF \\Waltz\H\Terrain\Patient Classification 1\Animal2\Wednesday\Animal2.ASF
:FULLY-SPECIFIED
:DEGREES
288
root 10.3316 16.9624 -23.0782 3.61561 -1.3598 -0.105941
lowerback 7.93986 -2.95705 4.26292
upperback -4.34279 -3.34587 1.42646
thorax -9.24922 -1.83395 -0.337041
lowerneck 6.72838 10.4008 17.2186
upperneck 11.9416 16.4411 -16.1784
head 5.24162 8.44775 -7.17104
rclavicle 4.74723e-014 -9.54166e-015
rhumerus -42.1561 -15.579 -53.7213
rradius 35.8078
rwrist -1.36857
rhand -19.5506 22.1572
rfingers 7.12502
rthumb 6.77365 -7.71442
lclavicle 4.74723e-014 -9.54166e-015
lhumerus -51.5415 -12.4989 77.7889
lradius 51.4526
lwrist 18.8116
lhand -16.3622 23.6012
lfingers 7.12502
lthumb 9.85074 53.3508
rfemur -20.3445 -2.4858 8.96969
rtibia 40.3072
rfoot -25.1821 -5.74435
rtoes -14.366
lfemur -20.3071 4.70346 -6.41773
ltibia 37.577
lfoot -20.7479 0.56572
ltoes -42.3241
289
root 10.3675 16.9615 -23.0646 3.46183 -1.49517 0.0351869
lowerback 7.96886 -2.92441 3.95723
upperback -4.22606 -3.33981 1.42857
thorax -9.11705 -1.8101 -0.169753
lowerneck 6.34926 10.4592 16.9811
upperneck 12.2278 16.4587 -15.9288
head 5.35525 8.43261 -7.02473
rclavicle -3.95457e-014 1.51076e-014
rhumerus -42.5406 -15.9463 -53.8736
rradius 36.0344
rwrist -1.83486
rhand -19.4697 22.0622
rfingers 7.12502
rthumb 6.85172 -7.80697
lclavicle -3.95457e-014 1.51076e-014
lhumerus -51.3998 -12.2119 77.673
lradius 51.5713
lwrist 20.4224
lhand -16.3052 24.5917
lfingers 7.12502
lthumb 9.90569 54.3386
rfemur -20.0872 -2.43863 8.65181
rtibia 40.1267
rfoot -25.1061 -5.5143
rtoes -13.3643
lfemur -20.1375 4.75103 -6.7055
ltibia 37.7581
lfoot -21.0367 0.335883
ltoes -41.5416
290
root 10.4045 16.9625 -23.0525 3.44209 -1.52472 -0.0760586
lowerback 7.9617 -2.88804 3.99831
upperback -4.28739 -3.28541 1.42279
thorax -9.18091 -1.78755 -0.205378
lowerneck 6.55555 10.3629 16.9153
upperneck 12.2039 16.3237 -15.7493
head 5.26951 8.37867 -6.98352
rclavicle 1.17407e-014 -1.59028e-014
rhumerus -43.3682 -16.2331 -53.9692
rradius 36.4776
rwrist -2.35524
rhand -19.502 21.9238
rfingers 7.12502
rthumb 6.82061 -7.94629
lclavicle 1.17407e-014 -1.59028e-014
lhumerus -51.6016 -12.2534 77.5845
lradius 51.7891
lwrist 21.9811
lhand -16.0928 25.0785
lfingers 7.12502
lthumb 10.1106 54.8156
rfemur -19.9561 -2.47747 8.62455
rtibia 39.9824
rfoot -25.1411 -5.31385
rtoes -12.433
lfemur -20.1193 4.75285 -6.7176
ltibia 37.9136
lfoot -21.2867 0.325487
ltoes -41.5044
291
root 10.4364 16.9611 -23.0351 3.42641 -1.47624 -0.242819
lowerback 7.95073 -2.86332 4.08787
upperback -4.48793 -3.24043 1.38114
thorax -9.40117 -1.77674 -0.298783
lowerneck 7.08089 10.1194 17.1746
upperneck 12.2015 16.0753 -15.779
head 5.16161 8.29272 -7.09286
rclavicle 7.97623e-015 1.59028e-015
rhumerus -44.47 -16.5868 -54.0106
rradius 36.835
rwrist -2.74004
rhand -19.6658 21.7993
rfingers 7.12502
rthumb 6.66242 -8.07594
lclavicle 7.97623e-015 1.59028e-015
lhumerus -52.205 -12.5945 77.6371
lradius 52.1569
lwrist 24.0991
lhand -16.6151 25.0422
lfingers 7.12502
lthumb 9.60672 54.8032
rfemur -19.7916 -2.48852 8.6899
rtibia 39.8583
rfoot -25.106 -5.42099
rtoes -13.0524
lfemur -20.1197 4.75288 -6.64872
ltibia 38.0619
lfoot -21.437 0.838449
ltoes -42.9225
292
root 10.4652 16.957 -23.0208 3.31856 -1.49398 -0.159366
lowerback 7.98904 -2.87061 3.85147
upperback -4.50678 -3.28218 1.31219
thorax -9.43463 -1.78517 -0.231018
lowerneck 7.08173 10.0717 17.2373
upperneck 12.2824 16.0119 -15.7087
head 5.17495 8.26564 -7.0853
rclavicle -2.40032e-014 -7.95139e-015
rhumerus -45.0639 -17.0814 -54.2285
rradius 37.0817
rwrist -3.12373
rhand -19.9262 21.8066
rfingers 7.12502
rthumb 6.41111 -8.07633
lclavicle -2.40032e-014 -7.95139e-015
lhumerus -52.5334 -12.7438 77.5678
lradius 52.604
lwrist 26.0397
lhand -16.3456 25.5799
lfingers 7.12502
lthumb 9.8667 55.3287
rfemur -19.5801 -2.43793 8.48528
rtibia 39.724
rfoot -24.9153 -5.66
rtoes -14.3698
lfemur -20.038 4.68449 -6.84625
ltibia 38.2123
lfoot -21.456 1.55435
ltoes -44.5835
293
root 10.496 16.9556 -23.0152 3.23873 -1.49396 -0.224854
lowerback 7.98163 -2.8988 3.76604
upperback -4.34893 -3.33405 1.31711
thorax -9.25294 -1.80201 -0.176874
lowerneck 6.72876 10.181 16.9936
upperneck 12.3246 16.0744 -15.4738
head 5.21913 8.27442 -6.94103
rclavicle 1.717e-014 -1.98785e-014
rhumerus -45.2711 -17.6703 -54.5474
rradius 37.4067
rwrist -3.83299
rhand -20.0837 21.8534
rfingers 7.12502
rthumb 6.25898 -8.03409
lclavicle 1.717e-014 -1.98785e-014
lhumerus -52.5267 -12.8187 77.4654
lradius 53.0907
lwrist 27.898
lhand -15.6671 26.4574
lfingers 7.12502
lthumb 10.5213 56.1741
rfemur -19.4143 -2.30006 8.44269
rtibia 39.5789
rfoot -24.7693 -5.58385
rtoes -14.1166
lfemur -20.0016 4.54124 -6.86967
ltibia 38.3438
lfoot -21.547 1.69022
ltoes -44.597
294
root 10.5254 16.9533 -23.0059 3.06998 -1.25728 -0.42135
lowerback 8.0563 -2.96612 3.83321
upperback -4.26059 -3.41291 1.33634
thorax -9.20663 -1.84209 -0.180323
lowerneck 6.46871 10.1493 17.0096
upperneck 12.5869 16.0104 -15.3763
head 5.32569 8.23311 -6.90024
rclavicle 2.17918e-014 6.36111e-015
rhumerus -45.7849 -18.2022 -54.715
rradius 37.9389
rwrist -4.51073
rhand -20.0296 21.1955
rfingers 7.12502
rthumb 6.31125 -8.69048
lclavicle 2.17918e-014 6.36111e-015
lhumerus -52.709 -13.1451 77.5871
lradius 53.5811
lwrist 30.1905
lhand -15.852 26.9504
lfingers 7.12502
lthumb 10.3429 56.676
rfemur -19.0505 -2.27171 8.56435
rtibia 39.4577
rfoot -24.6782 -5.61537
rtoes -13.2799
lfemur -19.9266 4.31722 -6.71781
ltibia 38.4576
lfoot -21.7462 1.47595
ltoes -44.1264
295
root 10.5561 16.9478 -22.9871 2.86664 -1.11081 -0.359983
lowerback 8.23789 -3.01144 3.61004
upperback -4.33871 -3.49028 1.3312
thorax -9.38719 -1.86739 -0.0352792
lowerneck 6.48051 10.0061 17.2125
upperneck 12.8879 15.8761 -15.521
head 5.42055 8.17226 -6.9936
rclavicle 6.31887e-014 -1.35174e-014
rhumerus -46.5461 -18.3964 -54.7762
rradius 38.5038
rwrist -5.06834
rhand -20.1596 20.5618
rfingers 7.12502
rthumb 6.18569 -9.32791
lclavicle 6.31887e-014 -1.35174e-014
lhumerus -53.226 -13.3248 77.7999
lradius 54.0284
lwrist 32.2227
lhand -16.071 27.192
lfingers 7.12502
lthumb 10.1317 56.9281
rfemur -18.6704 -2.36425 8.38631
rtibia 39.4052
rfoot -24.5945 -6.00649
rtoes -14.042
lfemur -19.7569 4.20242 -6.87786
ltibia 38.5672
lfoot -21.8818 1.65267
ltoes -44.5284
296
root 10.596 16.9403 -22.9715 2.86813 -1.42825 -0.100789
lowerback 8.27519 -2.91901 3.21421
upperback -4.45883 -3.41436 1.29037
thorax -9.51397 -1.80915 0.135589
lowerneck 6.55629 9.92456 17.25
upperneck 13.0407 15.8029 -15.5913
head 5.45014 8.13938 -7.03543
rclavicle 8.4732e-015 -6.75868e-015
rhumerus -47.2283 -18.6889 -54.8089
rradius 38.7969
rwrist -5.56908
rhand -20.6299 20.9151
rfingers 7.12502
rthumb 5.73164 -8.98741
lclavicle 8.4732e-015 -6.75868e-015
lhumerus -53.7523 -13.3304 77.9025
lradius 54.5138
lwrist 33.7623
lhand -15.9922 27.581
lfingers 7.12502
lthumb 10.2077 57.3133
rfemur -18.7319 -2.33567 7.91522
rtibia 39.4404
rfoot -24.4691 -6.16517
rtoes -15.6454
lfemur -19.6609 4.43634 -7.34952
ltibia 38.6843
lfoot -21.8981 2.39567
ltoes -45.6326
297
root 10.6385 16.9337 -22.9667 2.97214 -1.69699 0.123322
lowerback 8.20926 -2.85918 2.96089
upperback -4.56926 -3.37602 1.1789
thorax -9.58529 -1.78022 0.152365
lowerneck 6.59633 9.88587 17.3048
upperneck 13.2736 15.7666 -15.4791
head 5.50513 8.12825 -7.01261
rclavicle 2.93207e-014 2.34566e-014
rhumerus -47.985 -19.1559 -54.938
rradius 39.2392
rwrist -6.10132
rhand -20.998 21.0822
rfingers 7.12502
rthumb 5.37632 -8.82956
lclavicle 2.93207e-014 2.34566e-014
lhumerus -54.1997 -13.4468 77.9194
lradius 55.0156
lwrist 35.5898
lhand -16.0751 28.1095
lfingers 7.12502
lthumb 10.1277 57.8457
rfemur -19.0114 -2.45716 7.47202
rtibia 39.557
rfoot -24.3176 -5.87795
rtoes -16.596
lfemur -19.737 4.65924 -7.78873
ltibia 38.7753
lfoot -21.9634 2.75592
ltoes -46.0659
